<mxfile host="app.diagrams.net" modified="2024-04-28T06:49:34.417Z" agent="Mozilla/5.0 (Windows NT 10.0; Win64; x64) AppleWebKit/537.36 (KHTML, like Gecko) Chrome/124.0.0.0 Safari/537.36" version="24.3.1" etag="9FsHKQMqRTJfhsr_42t5" type="github">
  <diagram name="Page-1" id="DweB71ePaWY975Zs4zLX">
    <mxGraphModel>
      <root>
        <mxCell id="0" />
        <mxCell id="1" parent="0" />
      </root>
    </mxGraphModel>
  </diagram>
</mxfile>
